<svg xmlns="http://www.w3.org/2000/svg" width="1413.253" height="356.797" viewBox="0 0 1413.253 356.797">
  <g id="Digi-EP_Slogan_Color" transform="translate(6837 -5369.643)">
    <path id="Pfad_16" data-name="Pfad 16" d="M368.369,714c0-98.344-80.017-178.361-178.36-178.361H11.649V845.809a25.318,25.318,0,1,0,26.731-.382V562.374H190.009c83.608,0,151.629,68.021,151.629,151.629s-68.021,151.63-151.629,151.63H107.126v-234.5h76.007a89.752,89.752,0,0,1,0,179.5h-7.37V742.3a25.287,25.287,0,1,0-26.73,0v95.066h34.1a116.488,116.488,0,1,0,0-232.976H80.395V892.364H190.009c98.343,0,178.36-80.018,178.36-178.361" transform="translate(-6837 4834)" fill="#09c19b"/>
    <g id="Gruppe_31354" data-name="Gruppe 31354" transform="translate(-6837 4834)">
      <g id="Gruppe_2" data-name="Gruppe 2">
        <path id="Pfad_9" data-name="Pfad 9" d="M606.789,636.627q0,41.1-26.418,71.28-23.334,26.976-65.546,28.375-8.115.279-44.587.283-6.854,0-20.616-.42-13.782-.426-20.616-.421-4.065,0-4.06-3.209,0-15.381,1.193-46.193t1.184-46.2q0-16.071-1.184-48.149t-1.2-48.009q0-2.936,4.061-3.495,9.921-1.117,32.562-1.117,43.047,0,55.771,1.253,33.126,3.357,51.857,16.77Q586.792,569.953,597,592.6a104.69,104.69,0,0,1,9.787,44.031m-53.531,0q0-23.615-14.116-38.579-14.256-15.513-37.744-15.506-21.518,0-21.526,5.724,0,8.249-.274,24.814t-.283,24.813q0,8.1.283,24.4.279,16.276.274,24.519,0,6.018,22.367,6.018,24.172,0,38.013-16.076,13-15.236,13-40.116" fill="#130044"/>
        <path id="Pfad_10" data-name="Pfad 10" d="M679.191,671.568q0,10.2.411,30.4t.421,30.263q0,2.935-3.495,3.495-4.755.837-21.38.832-16.774,0-21.525-.832c-2.056-.372-3.307-.979-3.777-1.82a15.947,15.947,0,0,1-.283-4.2q0-9.642.42-28.991t.421-29.148q0-39.7-3.072-63.18c-.186-1.487-.284-2.467-.284-2.936,0-1.859,1.263-2.8,3.778-2.8q3.918,0,11.946.841,8.043.837,12.093.842t12.164-.7q8.1-.69,12.162-.7,3.347,0,3.346,2.8c0,.372-.088,1.252-.274,2.652a567.24,567.24,0,0,0-3.072,63.179m3.632-103.852q0,24.32-27.4,24.327-11.742,0-19.432-6.155-8.385-6.714-8.385-18.176a21.95,21.95,0,0,1,8.669-17.885,29.5,29.5,0,0,1,19.148-6.441,28.729,28.729,0,0,1,18.874,6.578,21.949,21.949,0,0,1,8.523,17.748" fill="#130044"/>
        <path id="Pfad_11" data-name="Pfad 11" d="M845.379,699.385q0,39.832-16.78,57.17Q811.282,774.3,771.018,774.3q-11.742,0-32.005-3.777-25.86-4.755-25.86-11.183,0-2.656,6.008-27.4c.656-2.6,1.683-3.914,3.072-3.914a6.422,6.422,0,0,1,1.546.568q21.516,10.611,39.832,10.616a43.815,43.815,0,0,0,19.989-5.029q12.021-6.018,12.015-15.1v-9.363q-14.253,13.414-36.623,13.414-26.271,0-43.188-18.864-16.35-18.169-16.35-44.725,0-26.7,15.655-44.313,16.35-18.3,42.768-18.307,21.105,0,32.288,15.1,2.23,3.067,3.073,3.072,1.262,0,1.262-5.029,0-11.184,2.515-11.183,2.23,0,24.177,2.309t22.788,2.584a3.456,3.456,0,0,1,2.378,3.632q0,9.642-.636,28.8-.617,19.153-.626,28.8,0,5.724.137,17.191t.146,17.192m-48.364-38.717a25.46,25.46,0,0,0-6.784-17.679,22.876,22.876,0,0,0-33.961.146,25.932,25.932,0,0,0-6.784,17.817,24.906,24.906,0,0,0,6.924,17.6,22.192,22.192,0,0,0,16.849,7.417,21.873,21.873,0,0,0,16.976-7.554,25.691,25.691,0,0,0,6.784-17.748" fill="#130044"/>
        <path id="Pfad_12" data-name="Pfad 12" d="M921.277,671.568q0,10.2.411,30.4t.421,30.263q0,2.935-3.495,3.495-4.755.837-21.38.832-16.774,0-21.525-.832c-2.056-.372-3.307-.979-3.778-1.82a15.944,15.944,0,0,1-.283-4.2q0-9.642.42-28.991t.421-29.148q0-39.7-3.072-63.18c-.186-1.487-.284-2.467-.284-2.936,0-1.859,1.262-2.8,3.777-2.8q3.918,0,11.947.841t12.093.842q4.05,0,12.165-.7,8.1-.69,12.162-.7,3.347,0,3.346,2.8c0,.372-.089,1.252-.274,2.652a567.47,567.47,0,0,0-3.073,63.179m3.632-103.852q0,24.32-27.4,24.327-11.742,0-19.432-6.155-8.382-6.714-8.387-18.176a21.953,21.953,0,0,1,8.669-17.885,29.5,29.5,0,0,1,19.148-6.441,28.729,28.729,0,0,1,18.874,6.578,21.949,21.949,0,0,1,8.523,17.748" fill="#130044"/>
        <path id="Pfad_13" data-name="Pfad 13" d="M1048.044,628.095a44.221,44.221,0,0,1-1.957,11.321q-1.674,5.59-3.221,11.32-.558,6.985-2.651,20.273c-.284,1.3-1.4,1.957-3.358,1.957q-5.313,0-16-.146-10.7-.133-16.145-.138-14.676,0-39.421,2.652-1.395.146-7.544,1.125a48.444,48.444,0,0,1-7.691.832q-3.624,0-3.632-6.853,0-3.624,4.746-20.263,4.623-15.792,6.715-20.41a3.626,3.626,0,0,1,3.64-2.231q5.445,0,16.35.557t16.35.558q11.461,0,37.875-3.358,13.842-1.82,13-1.81,2.935,0,2.935,4.608" fill="#130044"/>
        <path id="Pfad_14" data-name="Pfad 14" d="M1213.958,692.252q0,6.016-2.378,22.083-2.509,17.466-4.471,20.832a5.209,5.209,0,0,1-4.608,2.652,33.373,33.373,0,0,1-4.2-.421q-10.2-1.395-59.538-1.4-10.773,0-32.015-.137t-31.868-.137q-4.608,0-4.608-4.061,0-15.647,1.741-47.024t1.751-47.033q0-15.939-1.673-59.411-.426-11.184-1.546-33.4l-.137-1.957q-.279-3.215,3.495-3.209,10.347,0,31.1.558t31.095.557q10.2,0,30.752-.557t30.748-.558q7.265,0,8.386,5.45.69,3.215,2.162,19.5t1.468,19.774c0,1.957-.929,2.936-2.8,2.936-.557,0-1.536-.049-2.935-.138q-37.176-3.082-66.808-3.083-7.413,0-9.081,3.495c-.469,1.125-.7,4.706-.7,10.763q0,9.51,2.8,12.582,2.377,2.656,9.081,2.652c.939,0,2.749-.059,5.459-.2s4.934-.215,6.7-.215q17.611,0,35.645-.978,1.54-.147,7.691-.705a68.446,68.446,0,0,1,7.543-.558q3.359,0,3.358,3.221,0-2.935-2.514,21.38-1.116,11.184-1.125,22.367c0,1.859-1.35,2.8-4.051,2.8l-12.572-1.4q-7.969-.837-36.349-.841h-14.814q-5.724,0-6.715,2.8c-.088.46-.137,3.358-.137,8.66q0,10.626,1.4,13.7,2.377,5.313,17.9,6.291h20.4q7.412,0,22.015-1.321t21.878-1.331q3.066,0,3.072,5.029" fill="#130044"/>
        <path id="Pfad_15" data-name="Pfad 15" d="M1400,614.4q0,33.83-17.748,54.792-19.022,22.219-52.416,22.231c-3.727,0-9.354-.206-16.848-.626s-13.111-.636-16.84-.636c-4.011,0-6.007,1.722-6.007,5.175q0,6.429,1.252,19.148t1.263,19q0,3.215-2.936,3.221-8.527,0-25.576-.489t-25.587-.489q-4.05,0-4.05-4.051,0-15.513.489-46.613t.489-46.622q0-43.884-3.777-92.248l-.137-1.957q-.279-2.656,4.2-3.209,10.905-1.41,48.081-1.4,21.942,0,42.075.558,33.125.982,53.393,20.831Q1400,581.417,1400,614.4m-55.771,2.241q0-32.568-31.731-32.563-22.353,0-23.483,2.515-.969,1.821-.978,32.289,0,4.329.352,12.788c.225,5.636.352,9.9.352,12.788q0,2.789,25.156,2.789,30.337,0,30.332-30.606" fill="#130044"/>
      </g>
      <g id="Digitale_Erlebnispädagogik" data-name="Digitale Erlebnispädagogik" style="isolation: isolate">
        <g id="Gruppe_31353" data-name="Gruppe 31353" style="isolation: isolate">
          <path id="Pfad_58512" data-name="Pfad 58512" d="M478.118,844.442a33.218,33.218,0,0,1-6.934,21.062q-7.54,9.664-19.329,9.664-2.255,0-6.782-.173t-6.783-.174q-2.037,0-6.132.174t-6.132.173a.957.957,0,0,1-1.083-1.083q0-4.724.368-14.258t.368-14.3q0-5.028-.347-15.125t-.346-15.125q0-.91,1.127-.91,1.6,0,4.788.043t4.789.043q1.473,0,4.507-.043t4.594-.043q15.038,0,22.406,5.677a26.477,26.477,0,0,1,8.19,10.964A33.957,33.957,0,0,1,478.118,844.442Zm-10.618,0q0-9.362-5.331-15.255-5.547-6.111-14.821-6.111-7.671,0-6.2-.086-5.072.26-5.07,1.863,0,3.337-.152,9.989t-.152,9.99q0,3.294.152,9.881t.152,9.881q0,1.647,5.2,1.907-.695-.043,6.327-.044a24.522,24.522,0,0,0,7.931-1.04,15.128,15.128,0,0,0,6.544-4.81A24.617,24.617,0,0,0,467.5,844.442Z" fill="#130044"/>
          <path id="Pfad_58513" data-name="Pfad 58513" d="M496.319,823.337q0,5.33-5.937,5.33-6.024,0-6.024-5.33a4.924,4.924,0,0,1,1.864-3.944,6.568,6.568,0,0,1,8.342.043A4.923,4.923,0,0,1,496.319,823.337Zm-.3,11.744q0,3.338-.412,10.076t-.411,10.119q0,3.164.13,9.469t.13,9.427q0,.909-.78.909h-8.451q-.91,0-.91-1.776,0-2.991.151-8.993t.152-9.036q0-3.379-.5-10.141t-.5-10.141c0-.49.3-.737.91-.737a20.326,20.326,0,0,1,2.406.217,13.923,13.923,0,0,0,4.9,0,20.354,20.354,0,0,1,2.448-.217Q496.015,834.257,496.016,835.081Z" fill="#130044"/>
          <path id="Pfad_58514" data-name="Pfad 58514" d="M542.777,834.777q0,5.2-.087,15.624t-.087,15.623q0,10.316-4.42,15.211-4.638,5.2-14.821,5.2-9.839,0-15.9-3.727-.954-.607-.954-1.04,0,.476,1.3-6.414.129-.737.606-.737a1.158,1.158,0,0,1,.564.217,26.017,26.017,0,0,0,13.045,3.727,12.409,12.409,0,0,0,7.106-1.907,7.087,7.087,0,0,0,3.251-6.284q0-.91-.173-4.074a15.142,15.142,0,0,1-12.222,5.851,16.886,16.886,0,0,1-13.174-5.764,19.782,19.782,0,0,1-4.941-13.652,21.245,21.245,0,0,1,4.768-14,16.268,16.268,0,0,1,13.174-6.153,13.543,13.543,0,0,1,11.355,5.5q.691.909,1,.91c.231,0,.347-.261.347-.781q0-.562-.087-1.8t-.087-1.842q0-2.6.52-2.6.434,0,4.681.8t4.637.975Q542.778,833.869,542.777,834.777Zm-10.4,17.855a12.958,12.958,0,0,0-2.644-8.233,9.658,9.658,0,0,0-15.211.043,13.85,13.85,0,0,0,.043,16.338,9.492,9.492,0,0,0,15.081,0A12.663,12.663,0,0,0,532.376,852.632Z" fill="#130044"/>
          <path id="Pfad_58515" data-name="Pfad 58515" d="M562.019,823.337q0,5.33-5.937,5.33-6.024,0-6.024-5.33a4.926,4.926,0,0,1,1.863-3.944,6.569,6.569,0,0,1,8.343.043A4.922,4.922,0,0,1,562.019,823.337Zm-.3,11.744q0,3.338-.412,10.076t-.411,10.119q0,3.164.129,9.469t.13,9.427q0,.909-.779.909h-8.452q-.909,0-.909-1.776,0-2.991.151-8.993t.152-9.036q0-3.379-.5-10.141t-.5-10.141c0-.49.3-.737.91-.737a20.3,20.3,0,0,1,2.4.217,13.929,13.929,0,0,0,4.9,0,20.353,20.353,0,0,1,2.448-.217Q561.715,834.257,561.716,835.081Z" fill="#130044"/>
          <path id="Pfad_58516" data-name="Pfad 58516" d="M594.435,867.194q0,.954-.173,2.6-.218,2.037-.26,2.644a3.359,3.359,0,0,1-.13.953,1.817,1.817,0,0,1-.824.607q-3.553,1.691-11.18,1.69-10.141,0-10.141-9.187,0-3.684.173-11.073t.173-11.073a1.705,1.705,0,0,0-1.777-1.907q-1.6,0-3.163-.043-.91-.216-.91-3.554a21.269,21.269,0,0,1,.173-2.643,1.446,1.446,0,0,1,1.387-1.257q1.083,0,2.123-.043,1.993-.087,1.994-1.777,0-1.732-.109-5.288t-.108-5.33q0-3.164,1.213-3.164.391,0,8.148,1.344c.664.086,1,.405,1,.953q0,1.908-.282,5.721t-.282,5.721q0,1.257,1.17,1.256h10.4q.738,0,.737.52a14.573,14.573,0,0,1-.151,1.669,14.228,14.228,0,0,0-.152,1.712q0,.649.043,1.993t.044,1.994q0,.824-1.214.823-1.734,0-5.244-.238t-5.243-.239q-.348,0-.52,2.47-.218,3.078-.217,8.624v6.458a13.53,13.53,0,0,0,.693,5.2q1.041,2.253,4.291,2.253a19.649,19.649,0,0,0,3.943-.585,19.577,19.577,0,0,1,3.857-.585Q594.436,866.414,594.435,867.194Z" fill="#130044"/>
          <path id="Pfad_58517" data-name="Pfad 58517" d="M642.757,835.948a5.144,5.144,0,0,1-.13.78,104.075,104.075,0,0,0-1.691,17.118q0,.434,1.084,19.459l.043.606q.043,1.258-1.148,1.257a33.65,33.65,0,0,0-3.6.282,34.187,34.187,0,0,1-3.575.282q-.825,0-1.257-3.034t-.823-3.034a11.238,11.238,0,0,0-2.341,1.691,25.576,25.576,0,0,1-4.767,3.163,15.053,15.053,0,0,1-6.847,1.734,17.965,17.965,0,0,1-14.171-6.718,22.352,22.352,0,0,1-5.461-14.951q0-9.621,5.5-15.905,5.763-6.543,15.168-6.544a16.452,16.452,0,0,1,11.571,4.594q.737.867,2.3,2.513a.373.373,0,0,0,.26.13q.26,0,.737-2.73t1.213-2.73a26.95,26.95,0,0,1,4.377.65Q642.757,835.341,642.757,835.948Zm-11.051,18.115a13.859,13.859,0,0,0-3.164-9.144,10.507,10.507,0,0,0-8.537-4.118,10.921,10.921,0,0,0-8.668,4.074A13.683,13.683,0,0,0,608,854.063a13.463,13.463,0,0,0,3.337,9.1,10.965,10.965,0,0,0,8.668,4.03,10.623,10.623,0,0,0,8.494-4.117A13.669,13.669,0,0,0,631.706,854.063Z" fill="#130044"/>
          <path id="Pfad_58518" data-name="Pfad 58518" d="M660.785,815.059l-.043.563q-.954,16.122-.953,27.693,0,5.159.173,15.45t.173,15.407c0,.664-.232,1-.693,1h-8.278q-.78,0-.78-1,0-5.115.087-15.407t.087-15.45q0-4.68-.456-14.063t-.455-14.019q0-.867.911-.867.78,0,2.34.13t2.34.13q.824,0,2.427-.13t2.383-.13Q660.828,814.366,660.785,815.059Z" fill="#130044"/>
          <path id="Pfad_58519" data-name="Pfad 58519" d="M706.073,851.9a4.182,4.182,0,0,1-2.774,4.29q-1.864.695-26.826,2.557a9.754,9.754,0,0,0,4.2,6.5,12.314,12.314,0,0,0,7.454,2.557,20.1,20.1,0,0,0,12.568-4.42l1.386-1.127a.807.807,0,0,1,.455.086q.108.088,1.625,3.012a25.974,25.974,0,0,1,1.518,3.142q0,.261-.694,1a21.453,21.453,0,0,1-16.338,6.761q-10.055,0-16.035-6t-5.981-16.013a23.066,23.066,0,0,1,5.721-15.558,18.889,18.889,0,0,1,14.778-6.891,17.671,17.671,0,0,1,13.608,5.981A20.137,20.137,0,0,1,706.073,851.9Zm-10.315-2.644a8.672,8.672,0,0,0-2.839-6.371,8.93,8.93,0,0,0-6.392-2.773,9.6,9.6,0,0,0-7.085,3.207,10.107,10.107,0,0,0-3.1,7.194q0,.911,1.56.91a108.749,108.749,0,0,0,15.342-1.3Q695.757,849.772,695.758,849.252Z" fill="#130044"/>
          <path id="Pfad_58520" data-name="Pfad 58520" d="M775.456,866.457a8.428,8.428,0,0,1-.347,1.994q-.39,1.647-.477,1.993-.129,1.562-.606,4.551a1.035,1.035,0,0,1-1.127.78,14.58,14.58,0,0,1-1.647-.173,125.4,125.4,0,0,0-16.511-.781q-3.165,0-9.535.174t-9.534.173q-1.43,0-1.43-1.257,0-4.852.542-14.583t.541-14.583q0-4.939-.52-18.418-.087-3.467-.476-10.358l-.044-.607q-.043-1,1.127-1,3.033,0,9.1.173t9.1.174q2.9,0,8.689-.174t8.689-.173q2.037,0,2.21,1.256a65.92,65.92,0,0,1,.91,7.108q0,1-.953,1-3.684,0-11.16-.412t-11.246-.412q-3.554,0-4.485.954t-.932,4.723v6.458a18.63,18.63,0,0,0,.13,3.076q.391,1.344,2.254,1.344c.346,0,.838-.014,1.473-.043h1.474q8.493,0,15.254-.3,2.645-.086,6.241-.433.91-.087.91.78a41.479,41.479,0,0,1-.325,4.247,41.849,41.849,0,0,0-.325,4.291q0,.78-1.3.78-.52,0-3.857-.3-2.429-.259-10.921-.26-7.15,0-9.057.173a1.967,1.967,0,0,0-1.994,1.821q.042-.3.043,3.337v6.414q0,4.508,1.387,5.633,1.083.91,5.417.911l4.767-.044q3.033,0,17.032-1.04l.65-.043Q775.455,865.287,775.456,866.457Z" fill="#130044"/>
          <path id="Pfad_58521" data-name="Pfad 58521" d="M806.875,834.474a52.994,52.994,0,0,1-.649,8.668q-.131,1-.867,1-.91,0-2.752-.2t-2.8-.194q-5.46,0-6.977,3.076-.91,1.864-.91,7.758v4.767q0,2.427.2,7.367t.2,7.368q0,1.17-1,1.17-1.344,0-4.073-.043t-4.074-.044q-1,0-1-1.083,0-3.512.108-10.575t.109-10.617q0-10.7-1.994-17.205a2.351,2.351,0,0,1-.086-.52.758.758,0,0,1,.563-.737q1.6-.173,4.507-.52,4.68-.867,4.334-.867.693,0,.91,2.557t.78,2.557a.416.416,0,0,0,.217-.087l3.553-2.253a16.085,16.085,0,0,1,3.988-1.734,15.025,15.025,0,0,1,4.333-.52Q806.874,833.564,806.875,834.474Z" fill="#130044"/>
          <path id="Pfad_58522" data-name="Pfad 58522" d="M822.607,815.059l-.044.563q-.953,16.122-.953,27.693,0,5.159.174,15.45t.173,15.407c0,.664-.232,1-.693,1h-8.278q-.78,0-.78-1,0-5.115.086-15.407t.087-15.45q0-4.68-.455-14.063t-.455-14.019q0-.867.91-.867.78,0,2.341.13t2.34.13q.822,0,2.427-.13t2.383-.13Q822.65,814.366,822.607,815.059Z" fill="#130044"/>
          <path id="Pfad_58523" data-name="Pfad 58523" d="M867.9,851.9a4.18,4.18,0,0,1-2.774,4.29q-1.864.695-26.826,2.557a9.754,9.754,0,0,0,4.2,6.5,12.314,12.314,0,0,0,7.454,2.557,20.1,20.1,0,0,0,12.568-4.42l1.387-1.127a.809.809,0,0,1,.455.086q.108.088,1.625,3.012a26.043,26.043,0,0,1,1.517,3.142q0,.261-.694,1a21.453,21.453,0,0,1-16.338,6.761q-10.055,0-16.035-6t-5.981-16.013a23.071,23.071,0,0,1,5.721-15.558,18.889,18.889,0,0,1,14.778-6.891,17.669,17.669,0,0,1,13.608,5.981A20.137,20.137,0,0,1,867.9,851.9Zm-10.314-2.644a8.672,8.672,0,0,0-2.839-6.371,8.933,8.933,0,0,0-6.392-2.773,9.6,9.6,0,0,0-7.086,3.207,10.111,10.111,0,0,0-3.1,7.194q0,.911,1.561.91a108.737,108.737,0,0,0,15.341-1.3Q857.579,849.772,857.581,849.252Z" fill="#130044"/>
          <path id="Pfad_58524" data-name="Pfad 58524" d="M916.953,854.236a22.577,22.577,0,0,1-5.331,14.952,17.724,17.724,0,0,1-14.128,6.76,17.47,17.47,0,0,1-9.924-2.86q-1.734-1.473-3.467-2.9-.477.13-.628,2.6t-.716,2.471h-9.144c-.346,0-.52-.188-.52-.563,0,.028.028-.231.087-.781q.693-6.933.693-26.522,0-8.017-.693-23.532-.434-9.882-.434-8.668a1.135,1.135,0,0,1,1.127-1.257q1.56-.042,4.637-.173.606-.042,2.47-.3a15.984,15.984,0,0,1,2.514-.261q.693,0,.693,1,0,1.473-.216,4.506t-.217,4.551q0,2.254-.2,6.782t-.195,6.783q0,1.647.607,1.646c.2,0,.418-.158.65-.476a15.372,15.372,0,0,1,12.611-5.938,17.923,17.923,0,0,1,14.518,6.718A23.567,23.567,0,0,1,916.953,854.236Zm-9.795-.39a13.9,13.9,0,0,0-3.25-9.1,10.665,10.665,0,0,0-8.537-4.2,10.875,10.875,0,0,0-8.668,4.116,14.436,14.436,0,0,0,0,18.462,11,11,0,0,0,8.754,4.074,10.585,10.585,0,0,0,8.538-4.2A14.083,14.083,0,0,0,907.158,853.846Z" fill="#130044"/>
          <path id="Pfad_58525" data-name="Pfad 58525" d="M961.33,874.3q0,.954-.867.954-1.43,0-4.268-.043t-4.269-.044q-.78,0-.78-1.257,0-2.123.13-6.457t.13-6.5q0-1.733-.043-5.178t-.044-5.179q0-4.941-1.43-6.978-1.734-2.426-6.414-2.426-2.167,0-6.024,2.426-4.074,2.558-4.074,4.551v26q0,1.083-.823,1.083-1.387,0-4.16-.043t-4.161-.044q-.91,0-.91-1,0-3.425.109-10.271t.108-10.315a70.154,70.154,0,0,0-1.95-17.032,2.036,2.036,0,0,1-.13-.563c0-.288.187-.491.563-.607q.3-.042,4.962-.8t4.876-.759c.173,0,.288.232.346.694a27.9,27.9,0,0,0,1,5.417q2.253-1.776,5.938-4.421a16.921,16.921,0,0,1,8.8-2.773q8.146,0,11.138,4.723,2.209,3.469,2.21,11.225,0,1.344-.065,4.117t-.065,4.16q0,2.9.087,8.668T961.33,874.3Z" fill="#130044"/>
          <path id="Pfad_58526" data-name="Pfad 58526" d="M980.832,823.337q0,5.33-5.937,5.33-6.024,0-6.024-5.33a4.926,4.926,0,0,1,1.863-3.944,6.569,6.569,0,0,1,8.343.043A4.923,4.923,0,0,1,980.832,823.337Zm-.3,11.744q0,3.338-.412,10.076t-.411,10.119q0,3.164.129,9.469t.13,9.427c0,.606-.259.909-.78.909h-8.451q-.909,0-.909-1.776,0-2.991.151-8.993t.152-9.036q0-3.379-.5-10.141t-.5-10.141c0-.49.3-.737.91-.737a20.3,20.3,0,0,1,2.4.217,13.929,13.929,0,0,0,4.9,0,20.353,20.353,0,0,1,2.448-.217Q980.529,834.257,980.529,835.081Z" fill="#130044"/>
          <path id="Pfad_58527" data-name="Pfad 58527" d="M1009.391,861.82a12.347,12.347,0,0,1-5.157,10.358,18.3,18.3,0,0,1-11.4,3.554,16.33,16.33,0,0,1-2.946-.13q-.738-.348-.737-2.124a25.488,25.488,0,0,0-.238-2.86,25.007,25.007,0,0,1-.239-2.817q0-.564.78-.737a4.851,4.851,0,0,1,1.6,0q1.343.13,1.3.13,8.19,0,8.19-5.027,0-2.383-3.6-4.377a67.248,67.248,0,0,1-6.718-3.944,10.1,10.1,0,0,1-3.6-8.061,11.919,11.919,0,0,1,4.9-10.141,18.382,18.382,0,0,1,11.181-3.25.934.934,0,0,1,.889.564,29.5,29.5,0,0,1,1.083,3.51,22.012,22.012,0,0,1,.8,3.554c0,.317-.275.52-.824.606q-2.773.39-5.59.737-3.338.91-3.337,3.64,0,1.95,3.51,3.944a40.811,40.811,0,0,1,6.587,4.2A11.438,11.438,0,0,1,1009.391,861.82Z" fill="#130044"/>
          <path id="Pfad_58528" data-name="Pfad 58528" d="M1058.969,854.323a22.6,22.6,0,0,1-5.547,15.211,18.222,18.222,0,0,1-14.431,6.8,14.3,14.3,0,0,1-9.4-3.337q-1.82-1.689-3.64-3.423c-.173.086-.289.318-.346.693q-.045.259-.044,4.854l-.043,12.221q0,1.386-1,1.387-6.675,0-7.888-.174a1.021,1.021,0,0,1-1-1.126q0-5.548.087-16.642t.086-16.641a132.735,132.735,0,0,0-1.3-19.112,5.3,5.3,0,0,1-.087-.694.571.571,0,0,1,.434-.607q1.645-.086,4.81-.476,4.246-.78,4.767-.78.737,0,.954,2.6.129,1.734.217,3.424a1.152,1.152,0,0,0,.259.693,3,3,0,0,0,.694-.607q6.068-6.2,12.264-6.2a18.524,18.524,0,0,1,14.475,6.717A22.3,22.3,0,0,1,1058.969,854.323Zm-10.141-.173a13.952,13.952,0,0,0-3.25-9.145,10.588,10.588,0,0,0-8.538-4.2,9.825,9.825,0,0,0-8.233,4.334,15.474,15.474,0,0,0,.086,18.288,10.388,10.388,0,0,0,8.494,4.205,10.17,10.17,0,0,0,8.321-4.378A14.6,14.6,0,0,0,1048.828,854.15Z" fill="#130044"/>
          <path id="Pfad_58529" data-name="Pfad 58529" d="M1107.81,835.948a5.1,5.1,0,0,1-.129.78,104.068,104.068,0,0,0-1.691,17.118q0,.434,1.084,19.459l.043.606q.042,1.258-1.148,1.257a33.65,33.65,0,0,0-3.6.282,34.181,34.181,0,0,1-3.576.282q-.824,0-1.256-3.034t-.824-3.034a11.28,11.28,0,0,0-2.34,1.691,25.606,25.606,0,0,1-4.767,3.163,15.056,15.056,0,0,1-6.847,1.734,17.968,17.968,0,0,1-14.172-6.718,22.357,22.357,0,0,1-5.461-14.951q0-9.621,5.5-15.905,5.764-6.543,15.169-6.544a16.452,16.452,0,0,1,11.571,4.594q.736.867,2.3,2.513a.375.375,0,0,0,.261.13q.259,0,.736-2.73t1.214-2.73a26.949,26.949,0,0,1,4.377.65Q1107.809,835.341,1107.81,835.948Zm-27.172-8.278q0,.477-1.257.607a17.812,17.812,0,0,1-2.513,0q-1.908-.13-1.777-.13-.651,0-1.972.087c-.882.058-1.538.086-1.972.086a.727.727,0,0,1-.823-.823q0-.693.086-2.037t.087-2.037q0-.867-.13-2.622t-.13-2.622q0-.953,1.04-.953,1.3,0,3.966.043t3.986.044q1.321,0,1.322.91,0,.78-.152,2.383t-.151,2.384a20.686,20.686,0,0,0,.195,2.34A20.685,20.685,0,0,1,1080.638,827.67Zm16.121,26.393a13.858,13.858,0,0,0-3.163-9.144,10.508,10.508,0,0,0-8.537-4.118,10.92,10.92,0,0,0-8.668,4.074,13.683,13.683,0,0,0-3.337,9.188,13.463,13.463,0,0,0,3.337,9.1,10.963,10.963,0,0,0,8.668,4.03,10.624,10.624,0,0,0,8.494-4.117A13.674,13.674,0,0,0,1096.759,854.063Zm1.6-26.609q0,.737-1.56.736-1.3,0-3.857.044t-3.814.043q-1.083,0-1.083-1.213l-.044-8.841q0-1.083.867-1.084.737,0,2.275.13t2.319.13q.65,0,1.907-.043t1.863-.043q1.041,0,1.04.693,0,.824-.173,2.449t-.173,2.448a17.565,17.565,0,0,0,.216,2.3A17.741,17.741,0,0,1,1098.363,827.454Z" fill="#130044"/>
          <path id="Pfad_58530" data-name="Pfad 58530" d="M1156.522,814.713q0,5.59-.5,16.749t-.5,16.707q0,17.119.737,25.916l.044.563q.042.434-1.17.564a15.694,15.694,0,0,1-2.341,0q-1.82-.13-1.69-.131-.649,0-1.907.131t-1.907.129q-.606,0-.715-3.011t-.325-3.056a2.527,2.527,0,0,0-.65.564q-5.937,6.414-13.651,6.414a17.993,17.993,0,0,1-14.388-6.674,22.664,22.664,0,0,1-5.331-15.169A23.04,23.04,0,0,1,1117.6,838.9a18.415,18.415,0,0,1,14.692-6.588,14.97,14.97,0,0,1,9.534,3.207q1.863,1.605,3.684,3.251a.572.572,0,0,0,.346-.607V824.116q0-1.43-.13-4.333t-.13-4.377q0-1.039.693-1.04,1.6,0,4.768-.282t4.724-.282Q1156.521,813.8,1156.522,814.713Zm-10.834,39.437a14.069,14.069,0,0,0-3.207-9.145,10.546,10.546,0,0,0-8.494-4.2,10.959,10.959,0,0,0-8.8,4.161,14.03,14.03,0,0,0-3.294,9.361,13.212,13.212,0,0,0,3.424,9.058,11,11,0,0,0,8.668,4.073,10.628,10.628,0,0,0,8.581-4.117A14.154,14.154,0,0,0,1145.688,854.15Z" fill="#130044"/>
          <path id="Pfad_58531" data-name="Pfad 58531" d="M1206.36,835.948a5.007,5.007,0,0,1-.13.78,104.067,104.067,0,0,0-1.69,17.118q0,.434,1.083,19.459l.044.606q.042,1.258-1.148,1.257a33.682,33.682,0,0,0-3.6.282,34.169,34.169,0,0,1-3.575.282q-.823,0-1.257-3.034t-.823-3.034a11.251,11.251,0,0,0-2.34,1.691,25.614,25.614,0,0,1-4.767,3.163,15.057,15.057,0,0,1-6.848,1.734,17.968,17.968,0,0,1-14.171-6.718,22.352,22.352,0,0,1-5.461-14.951q0-9.621,5.5-15.905,5.763-6.543,15.169-6.544a16.448,16.448,0,0,1,11.57,4.594q.738.867,2.3,2.513a.375.375,0,0,0,.26.13q.261,0,.737-2.73t1.214-2.73a26.982,26.982,0,0,1,4.377.65Q1206.359,835.341,1206.36,835.948Zm-11.051,18.115a13.859,13.859,0,0,0-3.164-9.144,10.507,10.507,0,0,0-8.537-4.118,10.919,10.919,0,0,0-8.667,4.074,13.683,13.683,0,0,0-3.338,9.188,13.463,13.463,0,0,0,3.338,9.1,10.963,10.963,0,0,0,8.667,4.03,10.621,10.621,0,0,0,8.494-4.117A13.67,13.67,0,0,0,1195.309,854.063Z" fill="#130044"/>
          <path id="Pfad_58532" data-name="Pfad 58532" d="M1251.6,834.777q0,5.2-.086,15.624t-.087,15.623q0,10.316-4.421,15.211-4.638,5.2-14.821,5.2-9.838,0-15.9-3.727-.954-.607-.953-1.04,0,.476,1.3-6.414.129-.737.606-.737a1.159,1.159,0,0,1,.564.217,26.017,26.017,0,0,0,13.045,3.727,12.412,12.412,0,0,0,7.107-1.907,7.087,7.087,0,0,0,3.25-6.284q0-.91-.173-4.074a15.141,15.141,0,0,1-12.221,5.851,16.887,16.887,0,0,1-13.175-5.764,19.782,19.782,0,0,1-4.941-13.652,21.245,21.245,0,0,1,4.768-14,16.268,16.268,0,0,1,13.174-6.153,13.543,13.543,0,0,1,11.355,5.5q.693.909,1,.91c.231,0,.347-.261.347-.781q0-.562-.086-1.8t-.087-1.842q0-2.6.52-2.6.432,0,4.68.8t4.638.975Q1251.6,833.869,1251.6,834.777Zm-10.4,17.855a12.964,12.964,0,0,0-2.643-8.233,9.659,9.659,0,0,0-15.212.043,13.852,13.852,0,0,0,.044,16.338,9.492,9.492,0,0,0,15.081,0A12.669,12.669,0,0,0,1241.2,852.632Z" fill="#130044"/>
          <path id="Pfad_58533" data-name="Pfad 58533" d="M1298.842,854.063a21.962,21.962,0,0,1-5.937,15.471,20.462,20.462,0,0,1-30.119.044,23.013,23.013,0,0,1,0-30.857,20.645,20.645,0,0,1,30.076,0A21.523,21.523,0,0,1,1298.842,854.063Zm-9.144.087a13.245,13.245,0,0,0-3.25-9.015,10.81,10.81,0,0,0-8.581-3.943,10.987,10.987,0,0,0-8.624,3.9,14.115,14.115,0,0,0,.043,18.072,11.151,11.151,0,0,0,17.162,0A13.452,13.452,0,0,0,1289.7,854.15Z" fill="#130044"/>
          <path id="Pfad_58534" data-name="Pfad 58534" d="M1343.133,834.777q0,5.2-.087,15.624t-.087,15.623q0,10.316-4.42,15.211-4.638,5.2-14.821,5.2-9.838,0-15.905-3.727-.954-.607-.954-1.04,0,.476,1.3-6.414.129-.737.606-.737a1.158,1.158,0,0,1,.564.217,26.016,26.016,0,0,0,13.044,3.727,12.409,12.409,0,0,0,7.107-1.907,7.087,7.087,0,0,0,3.251-6.284q0-.91-.173-4.074a15.142,15.142,0,0,1-12.222,5.851,16.887,16.887,0,0,1-13.174-5.764,19.783,19.783,0,0,1-4.941-13.652,21.245,21.245,0,0,1,4.768-14,16.268,16.268,0,0,1,13.174-6.153,13.543,13.543,0,0,1,11.355,5.5q.691.909,1,.91c.231,0,.347-.261.347-.781q0-.562-.087-1.8t-.087-1.842q0-2.6.52-2.6.433,0,4.681.8t4.637.975Q1343.134,833.869,1343.133,834.777Zm-10.4,17.855a12.959,12.959,0,0,0-2.644-8.233,9.658,9.658,0,0,0-15.211.043,13.851,13.851,0,0,0,.043,16.338,9.491,9.491,0,0,0,15.081,0A12.663,12.663,0,0,0,1332.732,852.632Z" fill="#130044"/>
          <path id="Pfad_58535" data-name="Pfad 58535" d="M1362.374,823.337q0,5.33-5.937,5.33-6.024,0-6.023-5.33a4.926,4.926,0,0,1,1.863-3.944,6.569,6.569,0,0,1,8.343.043A4.922,4.922,0,0,1,1362.374,823.337Zm-.3,11.744q0,3.338-.411,10.076t-.412,10.119q0,3.164.13,9.469t.13,9.427q0,.909-.78.909h-8.451q-.91,0-.91-1.776,0-2.991.152-8.993t.151-9.036q0-3.379-.5-10.141t-.5-10.141c0-.49.3-.737.91-.737a20.326,20.326,0,0,1,2.406.217,13.923,13.923,0,0,0,4.9,0,20.37,20.37,0,0,1,2.448-.217Q1362.072,834.257,1362.071,835.081Z" fill="#130044"/>
          <path id="Pfad_58536" data-name="Pfad 58536" d="M1413.253,845.439q0,11.268-10.444,15.081,0,2.209,8.667,13.781,0,.651-4.333.867-2.86.13-4.291.13-3.078,0-3.857-1.3-2.037-3.466-6.414-10.1-.521-.78-9.4-.651l-1.69.044V874q0,1.344-.954,1.343-1.387,0-4.095-.043t-4.1-.043q-.954,0-.953-1.69V846.609q0-5.288-.412-15.818t-.411-15.819a.8.8,0,0,1,.823-.866q1.43-.043,4.334-.174.606-.042,2.557-.3a19.238,19.238,0,0,1,2.513-.217q.608,0,.607,1.04,0,2.34-.216,6.978t-.217,6.977v11.181q0,.91.39.91,1.039-.865,3.12-2.557,7.281-5.633,13.868-5.634a16.154,16.154,0,0,1,10.487,3.294A12,12,0,0,1,1413.253,845.439Zm-10.444,2.036q0-6.2-8.018-6.2-5.981,0-13.478,7.974v6.458a47.523,47.523,0,0,0,8.495.65,17.927,17.927,0,0,0,8.58-1.907A7.548,7.548,0,0,0,1402.809,847.475Z" fill="#130044"/>
        </g>
      </g>
    </g>
  </g>
</svg>
