<?xml version="1.0" encoding="UTF-8"?>
<svg id="Ebene_1" data-name="Ebene 1" xmlns="http://www.w3.org/2000/svg" viewBox="0 0 500 229.24">
  <defs>
    <style>
      .cls-1 {
        fill: #130044;
      }

      .cls-1, .cls-2 {
        stroke-width: 0px;
      }

      .cls-2 {
        fill: #09c19b;
      }
    </style>
  </defs>
  <g>
    <path class="cls-1" d="M234.04,124.7v1.58h-3.15v10.23h-1.94v-10.23h-3.16v-1.58h8.25Z"/>
    <path class="cls-1" d="M237.72,127.4c.47-.27,1.03-.4,1.67-.4v2.01h-.49c-.76,0-1.33.19-1.73.58-.39.38-.59,1.05-.59,2.01v4.93h-1.94v-9.37h1.94v1.36c.28-.48.66-.85,1.13-1.11Z"/>
    <path class="cls-1" d="M240.85,129.29c.39-.73.92-1.29,1.6-1.69.67-.4,1.42-.6,2.24-.6.74,0,1.38.14,1.93.43s.99.65,1.32,1.08v-1.36h1.96v9.37h-1.96v-1.39c-.33.44-.78.81-1.34,1.1-.57.29-1.21.44-1.94.44-.8,0-1.54-.21-2.21-.62-.67-.41-1.2-.99-1.59-1.73-.39-.74-.59-1.58-.59-2.52s.2-1.77.59-2.5ZM247.53,130.14c-.27-.48-.62-.84-1.05-1.09s-.89-.37-1.39-.37-.96.12-1.39.37c-.43.24-.78.6-1.05,1.07-.27.47-.4,1.03-.4,1.67s.13,1.21.4,1.7c.27.49.62.86,1.05,1.11.44.25.9.38,1.39.38s.96-.12,1.39-.37c.43-.25.78-.61,1.05-1.1.27-.48.4-1.04.4-1.69s-.13-1.21-.4-1.68Z"/>
    <path class="cls-1" d="M252.39,125.55c-.24-.24-.36-.53-.36-.88s.12-.65.36-.88c.24-.24.53-.36.88-.36s.63.12.87.36c.24.24.36.53.36.88s-.12.65-.36.88-.53.36-.87.36-.65-.12-.88-.36ZM254.22,127.15v9.37h-1.94v-9.37h1.94Z"/>
    <path class="cls-1" d="M263.34,127.46c.58.31,1.04.76,1.37,1.36.33.6.49,1.33.49,2.18v5.53h-1.92v-5.24c0-.84-.21-1.48-.63-1.93-.42-.45-.99-.67-1.72-.67s-1.3.22-1.73.67c-.42.45-.64,1.09-.64,1.93v5.24h-1.94v-9.37h1.94v1.07c.32-.39.72-.69,1.22-.9.49-.21,1.02-.32,1.57-.32.74,0,1.4.15,1.98.46Z"/>
    <path class="cls-1" d="M267.58,125.55c-.24-.24-.36-.53-.36-.88s.12-.65.36-.88c.24-.24.53-.36.88-.36s.63.12.87.36c.24.24.36.53.36.88s-.12.65-.36.88-.53.36-.87.36-.65-.12-.88-.36ZM269.42,127.15v9.37h-1.94v-9.37h1.94Z"/>
    <path class="cls-1" d="M278.53,127.46c.58.31,1.04.76,1.37,1.36.33.6.49,1.33.49,2.18v5.53h-1.92v-5.24c0-.84-.21-1.48-.63-1.93-.42-.45-.99-.67-1.72-.67s-1.3.22-1.73.67c-.42.45-.64,1.09-.64,1.93v5.24h-1.94v-9.37h1.94v1.07c.32-.39.72-.69,1.22-.9.49-.21,1.02-.32,1.57-.32.74,0,1.4.15,1.98.46Z"/>
    <path class="cls-1" d="M288.46,127.43c.56.29,1,.65,1.32,1.08v-1.36h1.96v9.52c0,.86-.18,1.63-.54,2.3-.36.67-.89,1.2-1.57,1.59-.69.39-1.5.58-2.46.58-1.27,0-2.32-.3-3.16-.89s-1.31-1.4-1.43-2.42h1.92c.15.49.46.88.94,1.18.48.3,1.06.45,1.73.45.78,0,1.41-.24,1.9-.71.48-.48.72-1.17.72-2.07v-1.56c-.33.44-.77.81-1.33,1.11-.56.3-1.2.45-1.91.45-.82,0-1.56-.21-2.24-.62-.67-.41-1.21-.99-1.6-1.73-.39-.74-.59-1.58-.59-2.52s.2-1.77.59-2.5c.39-.73.92-1.29,1.6-1.69.67-.4,1.42-.6,2.24-.6.73,0,1.37.14,1.93.43ZM289.38,130.14c-.27-.48-.62-.84-1.05-1.09s-.89-.37-1.39-.37-.96.12-1.39.37c-.43.24-.78.6-1.05,1.07-.27.47-.4,1.03-.4,1.67s.13,1.21.4,1.7c.27.49.62.86,1.05,1.11.44.25.9.38,1.39.38s.96-.12,1.39-.37c.43-.25.78-.61,1.05-1.1.27-.48.4-1.04.4-1.69s-.13-1.21-.4-1.68Z"/>
    <path class="cls-1" d="M300.97,128.73v5.19c0,.35.08.6.25.76.16.15.45.23.84.23h1.19v1.62h-1.53c-.87,0-1.54-.2-2.01-.61-.46-.41-.7-1.07-.7-1.99v-5.19h-1.11v-1.58h1.11v-2.33h1.96v2.33h2.28v1.58h-2.28Z"/>
    <path class="cls-1" d="M313.24,132.56h-7.16c.06.75.33,1.35.83,1.8s1.11.68,1.84.68c1.04,0,1.78-.44,2.21-1.31h2.09c-.28.86-.8,1.57-1.54,2.12-.74.55-1.66.83-2.76.83-.9,0-1.7-.2-2.41-.6s-1.26-.97-1.67-1.7c-.4-.73-.6-1.58-.6-2.54s.2-1.81.59-2.54c.39-.73.94-1.29,1.65-1.69s1.52-.59,2.44-.59,1.67.19,2.36.58c.69.39,1.23.93,1.62,1.62.38.7.58,1.5.58,2.41,0,.35-.02.67-.07.95ZM311.28,130.99c-.01-.71-.27-1.29-.76-1.72-.5-.43-1.12-.65-1.85-.65-.67,0-1.24.21-1.72.64-.48.43-.76,1-.85,1.73h5.18Z"/>
    <path class="cls-1" d="M315.15,129.29c.39-.73.92-1.29,1.6-1.69.67-.4,1.42-.6,2.24-.6.74,0,1.38.14,1.93.43s.99.65,1.32,1.08v-1.36h1.96v9.37h-1.96v-1.39c-.33.44-.78.81-1.34,1.1-.57.29-1.21.44-1.94.44-.8,0-1.54-.21-2.21-.62-.67-.41-1.2-.99-1.59-1.73-.39-.74-.59-1.58-.59-2.52s.2-1.77.59-2.5ZM321.83,130.14c-.27-.48-.62-.84-1.05-1.09s-.89-.37-1.39-.37-.96.12-1.39.37c-.43.24-.78.6-1.05,1.07-.27.47-.4,1.03-.4,1.67s.13,1.21.4,1.7c.27.49.62.86,1.05,1.11.44.25.9.38,1.39.38s.96-.12,1.39-.37c.43-.25.78-.61,1.05-1.1.27-.48.4-1.04.4-1.69s-.13-1.21-.4-1.68Z"/>
    <path class="cls-1" d="M339.9,127.46c.58.31,1.04.76,1.38,1.36.33.6.5,1.33.5,2.18v5.53h-1.92v-5.24c0-.84-.21-1.48-.63-1.93-.42-.45-.99-.67-1.72-.67s-1.3.22-1.73.67c-.42.45-.64,1.09-.64,1.93v5.24h-1.92v-5.24c0-.84-.21-1.48-.63-1.93-.42-.45-.99-.67-1.72-.67s-1.3.22-1.73.67c-.42.45-.64,1.09-.64,1.93v5.24h-1.94v-9.37h1.94v1.07c.32-.39.72-.69,1.21-.9.49-.21,1.01-.32,1.56-.32.75,0,1.42.16,2.01.48.59.32,1.04.78,1.36,1.38.28-.57.73-1.02,1.33-1.35.6-.33,1.25-.5,1.94-.5.74,0,1.4.15,1.98.46Z"/>
    <path class="cls-1" d="M345.46,136.27c-.58-.27-1.04-.63-1.39-1.09-.34-.46-.52-.97-.54-1.54h2.01c.03.4.22.73.57.99.35.27.78.4,1.3.4s.97-.11,1.27-.32c.3-.21.45-.48.45-.81,0-.35-.17-.61-.5-.78s-.86-.36-1.59-.56c-.7-.19-1.27-.38-1.72-.56-.44-.18-.82-.46-1.15-.83s-.48-.87-.48-1.48c0-.5.15-.95.44-1.37.29-.41.72-.74,1.27-.98.55-.24,1.18-.36,1.9-.36,1.06,0,1.92.27,2.58.81.65.54,1,1.27,1.04,2.2h-1.94c-.03-.42-.2-.75-.51-1-.31-.25-.72-.37-1.24-.37s-.9.1-1.17.29c-.27.19-.41.45-.41.76,0,.25.09.46.27.63.18.17.4.3.66.4.26.1.65.22,1.16.37.68.18,1.24.37,1.67.55.44.19.81.46,1.13.82.32.36.48.84.49,1.45,0,.53-.15,1.01-.44,1.43-.29.42-.71.75-1.25.99s-1.17.36-1.9.36-1.4-.13-1.98-.4Z"/>
    <path class="cls-1" d="M361.46,128.73h-1.73v7.79h-1.96v-7.79h-1.1v-1.58h1.1v-.66c0-1.08.29-1.86.86-2.35s1.47-.74,2.7-.74v1.62c-.59,0-1,.11-1.24.33-.24.22-.36.6-.36,1.15v.66h1.73v1.58Z"/>
    <path class="cls-1" d="M364.54,136.07c-.71-.4-1.28-.97-1.68-1.7-.41-.73-.61-1.58-.61-2.54s.21-1.8.63-2.53c.42-.74.99-1.3,1.72-1.7.72-.4,1.54-.59,2.43-.59s1.71.2,2.43.59c.73.4,1.3.96,1.72,1.7.42.74.63,1.58.63,2.53s-.22,1.8-.65,2.53c-.43.74-1.02,1.31-1.76,1.71-.74.4-1.56.6-2.46.6s-1.68-.2-2.4-.6ZM368.34,134.63c.44-.24.79-.6,1.06-1.07.27-.48.41-1.05.41-1.73s-.13-1.25-.39-1.73c-.26-.47-.61-.82-1.04-1.06-.43-.24-.9-.36-1.39-.36s-.96.12-1.38.36c-.43.24-.76.59-1.01,1.06-.25.47-.37,1.05-.37,1.73,0,1.01.26,1.79.77,2.34s1.16.82,1.95.82c.5,0,.97-.12,1.4-.36Z"/>
    <path class="cls-1" d="M376.69,127.4c.47-.27,1.03-.4,1.67-.4v2.01h-.49c-.76,0-1.33.19-1.73.58-.39.38-.59,1.05-.59,2.01v4.93h-1.94v-9.37h1.94v1.36c.28-.48.66-.85,1.13-1.11Z"/>
    <path class="cls-1" d="M386.83,128.73v5.19c0,.35.08.6.25.76.16.15.45.23.84.23h1.19v1.62h-1.53c-.87,0-1.54-.2-2.01-.61-.46-.41-.7-1.07-.7-1.99v-5.19h-1.11v-1.58h1.11v-2.33h1.96v2.33h2.28v1.58h-2.28Z"/>
    <path class="cls-1" d="M392.21,136.07c-.71-.4-1.28-.97-1.68-1.7-.41-.73-.61-1.58-.61-2.54s.21-1.8.63-2.53c.42-.74.99-1.3,1.72-1.7.72-.4,1.54-.59,2.43-.59s1.71.2,2.43.59c.73.4,1.3.96,1.72,1.7.42.74.63,1.58.63,2.53s-.22,1.8-.65,2.53c-.43.74-1.02,1.31-1.76,1.71-.74.4-1.56.6-2.46.6s-1.68-.2-2.4-.6ZM396.01,134.63c.44-.24.79-.6,1.06-1.07.27-.48.41-1.05.41-1.73s-.13-1.25-.39-1.73c-.26-.47-.61-.82-1.04-1.06-.43-.24-.9-.36-1.39-.36s-.96.12-1.38.36c-.43.24-.76.59-1.01,1.06-.25.47-.37,1.05-.37,1.73,0,1.01.26,1.79.77,2.34s1.16.82,1.95.82c.5,0,.97-.12,1.4-.36Z"/>
    <path class="cls-1" d="M414.62,127.46c.58.31,1.04.76,1.38,1.36.33.6.5,1.33.5,2.18v5.53h-1.92v-5.24c0-.84-.21-1.48-.63-1.93-.42-.45-.99-.67-1.72-.67s-1.3.22-1.73.67c-.42.45-.64,1.09-.64,1.93v5.24h-1.92v-5.24c0-.84-.21-1.48-.63-1.93-.42-.45-.99-.67-1.72-.67s-1.3.22-1.73.67c-.42.45-.64,1.09-.64,1.93v5.24h-1.94v-9.37h1.94v1.07c.32-.39.72-.69,1.21-.9.49-.21,1.01-.32,1.56-.32.75,0,1.42.16,2.01.48.59.32,1.04.78,1.36,1.38.28-.57.73-1.02,1.33-1.35.6-.33,1.25-.5,1.94-.5.74,0,1.4.15,1.98.46Z"/>
    <path class="cls-1" d="M420.52,136.07c-.71-.4-1.28-.97-1.68-1.7-.41-.73-.61-1.58-.61-2.54s.21-1.8.63-2.53c.42-.74.99-1.3,1.72-1.7.72-.4,1.54-.59,2.43-.59s1.71.2,2.43.59c.73.4,1.3.96,1.72,1.7.42.74.63,1.58.63,2.53s-.22,1.8-.65,2.53c-.43.74-1.02,1.31-1.76,1.71-.74.4-1.56.6-2.46.6s-1.68-.2-2.4-.6ZM424.32,134.63c.44-.24.79-.6,1.06-1.07.27-.48.41-1.05.41-1.73s-.13-1.25-.39-1.73c-.26-.47-.61-.82-1.04-1.06-.43-.24-.9-.36-1.39-.36s-.96.12-1.38.36c-.43.24-.76.59-1.01,1.06-.25.47-.37,1.05-.37,1.73,0,1.01.26,1.79.77,2.34s1.16.82,1.95.82c.5,0,.97-.12,1.4-.36Z"/>
    <path class="cls-1" d="M432.67,127.4c.47-.27,1.03-.4,1.67-.4v2.01h-.49c-.76,0-1.33.19-1.73.58-.39.38-.59,1.05-.59,2.01v4.93h-1.94v-9.37h1.94v1.36c.28-.48.66-.85,1.13-1.11Z"/>
    <path class="cls-1" d="M438.92,127.4c.47-.27,1.03-.4,1.67-.4v2.01h-.49c-.76,0-1.33.19-1.73.58-.39.38-.59,1.05-.59,2.01v4.93h-1.94v-9.37h1.94v1.36c.28-.48.66-.85,1.13-1.11Z"/>
    <path class="cls-1" d="M443.75,136.07c-.71-.4-1.28-.97-1.68-1.7-.41-.73-.61-1.58-.61-2.54s.21-1.8.63-2.53c.42-.74.99-1.3,1.72-1.7.72-.4,1.54-.59,2.43-.59s1.71.2,2.43.59c.73.4,1.3.96,1.72,1.7.42.74.63,1.58.63,2.53s-.22,1.8-.65,2.53c-.43.74-1.02,1.31-1.76,1.71-.74.4-1.56.6-2.46.6s-1.68-.2-2.4-.6ZM447.55,134.63c.44-.24.79-.6,1.06-1.07.27-.48.41-1.05.41-1.73s-.13-1.25-.39-1.73c-.26-.47-.61-.82-1.04-1.06-.43-.24-.9-.36-1.39-.36s-.96.12-1.38.36c-.43.24-.76.59-1.01,1.06-.25.47-.37,1.05-.37,1.73,0,1.01.26,1.79.77,2.34s1.16.82,1.95.82c.5,0,.97-.12,1.4-.36Z"/>
    <path class="cls-1" d="M465.19,127.15l-2.91,9.37h-2.04l-1.89-6.92-1.89,6.92h-2.04l-2.92-9.37h1.97l1.96,7.53,1.99-7.53h2.02l1.9,7.5,1.94-7.5h1.9Z"/>
  </g>
  <path class="cls-2" d="M100.03,47.21c-.37,2.18-1.14,4.01-2.29,5.49-1.15,1.48-2.55,2.56-4.18,3.25-1.64.68-3.39.85-5.26.53s-3.41-1.04-4.75-2.19c-1.35-1.15-2.31-2.62-2.9-4.43-.59-1.8-.69-3.83-.3-6.08s1.14-4.06,2.3-5.54,2.56-2.54,4.21-3.18c1.65-.64,3.37-.8,5.15-.49s3.41,1.04,4.76,2.19c1.34,1.15,2.32,2.62,2.93,4.4s.73,3.81.34,6.06Z"/>
  <path class="cls-2" d="M139.62,172.58c-20.53.16-56.59-5.53-73.58-40.21-11.78,13.11-17.93,20.54-31.76,40.15l-15.13.07c10.54-17.23,24.02-34.73,40.98-53.22-7.24-17.89-12.83-39.1-16.66-63.12l13.31-.06c3.26,19.88,7.72,37.55,13.29,52.68,22.64-23.26,44.58-41.6,59.18-53.02l21.51-.1c-.4.49-.88.92-1.43,1.27-12.17,8.95-43.14,32.79-73.79,65.03,14.3,31.51,45.14,37.05,61,37.74,49.96,2.17,77.01-32.48,82.01-37.06,1.06-.96-32.5,49.5-78.94,49.85Z"/>
  <g>
    <path class="cls-1" d="M152.65,75.21c2.92-.01,5.59.44,8.01,1.36s4.52,2.28,6.29,4.09c1.77,1.8,3.15,3.98,4.15,6.51.99,2.54,1.5,5.4,1.51,8.57.02,3.98-.78,7.46-2.41,10.44-1.62,2.98-3.84,5.28-6.66,6.91-2.81,1.63-6.01,2.45-9.58,2.46-1.96,0-3.84-.31-5.63-.96-1.79-.65-3.38-1.56-4.77-2.73-1.39-1.18-2.52-2.52-3.38-4.03h-.15s.11,23.5.11,23.5l-6.95.03-.17-35.66c-.02-4.33.83-8.01,2.55-11.04,1.72-3.03,4.07-5.36,7.03-6.98,2.96-1.63,6.31-2.45,10.04-2.47ZM152.68,81.18c-2.32.01-4.44.6-6.38,1.76-1.93,1.17-3.46,2.81-4.59,4.93s-1.68,4.61-1.67,7.49.59,5.45,1.74,7.59,2.69,3.78,4.63,4.93c1.94,1.15,4.1,1.72,6.47,1.71s4.58-.63,6.49-1.84,3.43-2.89,4.55-5.01c1.12-2.12,1.68-4.59,1.67-7.41s-.6-5.44-1.77-7.55-2.73-3.74-4.67-4.89c-1.94-1.15-4.1-1.72-6.47-1.7Z"/>
    <path class="cls-1" d="M201.77,114.42c-4.23.02-7.99-.75-11.27-2.33-3.28-1.57-5.85-3.8-7.7-6.69-1.85-2.89-2.79-6.27-2.81-10.15s.75-7.27,2.3-10.32c1.55-3.06,3.7-5.47,6.46-7.25s5.98-2.67,9.66-2.69c3.98-.02,7.3.82,9.95,2.52,2.65,1.7,4.64,4,5.96,6.89,1.32,2.89,1.99,6.12,2.01,9.7,0,.55,0,1.13-.03,1.74-.02.6-.08,1.13-.18,1.59l-28.71.13c.26,2.37,1.05,4.36,2.37,6s3,2.85,5.04,3.68c2.04.82,4.3,1.23,6.77,1.22l10.05-.05.03,5.97-9.9.05ZM187.31,92.65l21.99-.1c0-.95-.11-1.98-.32-3.06s-.56-2.14-1.07-3.17c-.51-1.03-1.18-1.96-2.01-2.78s-1.87-1.49-3.11-1.99c-1.24-.49-2.68-.74-4.35-.73-1.76,0-3.31.35-4.64,1.04s-2.47,1.6-3.42,2.74c-.95,1.14-1.68,2.41-2.17,3.83-.5,1.41-.79,2.83-.89,4.23Z"/>
    <path class="cls-1" d="M225.61,114.31l-.13-27.58c-.02-3.43.94-6.11,2.87-8.06,1.93-1.95,4.61-2.93,8.03-2.95l7.93-.04.03,5.97-6.65.03c-1.66,0-2.96.5-3.88,1.45-.93.96-1.39,2.3-1.38,4.01l.13,27.12-6.95.03Z"/>
    <path class="cls-1" d="M255.02,69.52c-1.26,0-2.36-.46-3.29-1.38-.94-.92-1.41-2.02-1.41-3.28s.46-2.36,1.38-3.29c.93-.94,2.02-1.41,3.28-1.41s2.36.45,3.29,1.38,1.41,2.02,1.41,3.28-.46,2.36-1.38,3.29c-.93.94-2.02,1.41-3.28,1.42ZM251.68,114.19l-.18-38.53,7.03-.03.18,38.53-7.03.03Z"/>
    <path class="cls-1" d="M289.73,114.02c-4.23.02-7.99-.75-11.27-2.33-3.28-1.57-5.85-3.8-7.7-6.69-1.85-2.89-2.79-6.27-2.81-10.15s.75-7.27,2.3-10.32c1.55-3.06,3.7-5.47,6.46-7.25s5.98-2.67,9.66-2.69c3.98-.02,7.3.82,9.95,2.52,2.65,1.7,4.64,4,5.96,6.89,1.32,2.89,1.99,6.12,2.01,9.7,0,.55,0,1.13-.03,1.74-.02.6-.08,1.13-.18,1.59l-28.71.13c.26,2.37,1.05,4.36,2.37,6s3,2.85,5.04,3.68c2.04.82,4.3,1.23,6.77,1.22l10.05-.05.03,5.97-9.9.05ZM275.28,92.25l21.99-.1c0-.95-.11-1.98-.32-3.06s-.56-2.14-1.07-3.17c-.51-1.03-1.18-1.96-2.01-2.78s-1.87-1.49-3.11-1.99c-1.24-.49-2.68-.74-4.35-.73-1.76,0-3.31.35-4.64,1.04s-2.47,1.6-3.42,2.74c-.95,1.14-1.68,2.41-2.17,3.83-.5,1.41-.79,2.83-.89,4.23Z"/>
    <path class="cls-1" d="M313.41,113.91l-.1-22.29c-.02-3.42.74-6.42,2.26-9,1.52-2.57,3.64-4.59,6.36-6.04,2.71-1.45,5.81-2.18,9.28-2.2s6.64.69,9.34,2.11c2.7,1.42,4.83,3.42,6.38,5.98,1.55,2.56,2.33,5.56,2.35,8.98l.1,22.29-6.95.03-.1-22.21c-.01-2.31-.54-4.31-1.58-6-1.04-1.68-2.41-2.97-4.1-3.87-1.69-.9-3.5-1.34-5.41-1.33s-3.71.47-5.4,1.38-3.04,2.22-4.06,3.91c-1.03,1.7-1.53,3.7-1.52,6.01l.1,22.21-6.95.03Z"/>
    <path class="cls-1" d="M355.2,81.15l-.03-5.97,26.82-.12.03,5.97-26.82.12ZM372.95,113.63c-3.43.02-6.11-.95-8.06-2.91-1.95-1.95-2.93-4.62-2.95-7.99l-.17-37.25,6.95-.03.17,36.8c0,1.66.48,2.98,1.42,3.96.93.98,2.23,1.47,3.9,1.46l7.78-.04.03,5.97-9.07.04Z"/>
    <path class="cls-1" d="M393.67,68.88c-1.26,0-2.36-.46-3.29-1.38-.94-.92-1.41-2.02-1.41-3.28s.46-2.36,1.38-3.29c.93-.94,2.02-1.41,3.28-1.41s2.36.45,3.29,1.38,1.41,2.02,1.41,3.28-.46,2.36-1.38,3.29c-.93.94-2.02,1.41-3.28,1.42ZM390.33,113.55l-.18-38.53,7.03-.03.18,38.53-7.03.03Z"/>
    <path class="cls-1" d="M424.84,114.3c-3.73.02-6.95-.86-9.68-2.64-2.73-1.78-4.83-4.2-6.3-7.26-1.48-3.06-2.22-6.46-2.24-10.19s.77-7.19,2.37-10.25c1.6-3.06,3.9-5.49,6.92-7.29,3.02-1.8,6.64-2.71,10.87-2.73s7.58.85,10.51,2.6c2.93,1.75,5.2,4.13,6.79,7.15,1.6,3.02,2.41,6.39,2.43,10.11l.09,19.49-7.03.03-.04-7.86h-.15c-.75,1.47-1.76,2.87-3.04,4.21s-2.87,2.44-4.78,3.31c-1.91.87-4.15,1.3-6.72,1.32ZM426.62,108.32c2.52-.01,4.74-.64,6.68-1.88,1.93-1.24,3.43-2.96,4.51-5.16,1.07-2.2,1.6-4.65,1.59-7.38s-.54-5.06-1.58-7.17c-1.04-2.11-2.52-3.78-4.44-5-1.92-1.23-4.17-1.83-6.73-1.82-2.72.01-5.05.65-6.98,1.92-1.93,1.27-3.41,2.98-4.44,5.12-1.02,2.15-1.53,4.58-1.51,7.3s.53,5,1.54,7.13,2.49,3.83,4.41,5.08c1.92,1.25,4.24,1.87,6.96,1.86Z"/>
    <path class="cls-1" d="M458.05,113.24l-.26-55.16,6.95-.03.26,55.16-6.95.03Z"/>
  </g>
</svg>